<?xml version="1.0" encoding="utf-8"?>
<svg xmlns="http://www.w3.org/2000/svg" width="1300px" height="600px" version="1.0">
  <g style="transform-origin: 854.85px 1684.59px;" transform="matrix(1.046446, 0, 0, 1.073695, -204.850067, -1384.590916)">
    <path d="m621.5 1406-186 .5-5.5 2.1c-14.4 5.5-25.3 13.2-34.7 24.4-11.8 14.1-17.7 30.5-17.7 49.5 0 12.9 2.3 22.3 8.5 35.1 6.1 12.9 13.4 22 29 36.4 14.2 13.1 19.1 18.6 18.7 20.9-.8 4.2-.8 4.2-101.5 3.9-52.9-.2-96.4 0-96.7.3-.3.3-.9 19.9-1.3 43.6l-.6 43 25.8.6c38.1 1 210 .8 217.2-.2 14-2.1 33.3-12.8 43.8-24.4 23.6-26 28.3-66.1 11.5-97.5-5.4-10.2-13.1-19.4-30.2-36.2-9.2-9.1-16.8-17.1-16.8-17.8 0-.9 14.9-1.2 65.3-1.2h65.4l-.5 88.3-.5 88.4 3.3.6c1.8.4 22.3.7 45.6.7H706v-176.7l30.8-.6c16.9-.4 40.6-.7 52.8-.7h22.1l.6-40.6c.3-22.4.3-41.2.1-41.8-.2-.6-1.4-1.1-2.7-1.1-1.2 0-85.9.2-188.2.5ZM852.1 1406.4c-.6.7-4.5 13.1-8.6 27.7-4.2 14.5-10.9 36.7-15 49.4-4 12.6-11 34.9-15.5 49.5-4.5 14.6-12.6 40.7-18 58-5.5 17.3-12.8 41.2-16.4 53l-6.4 21.5 27.7.6c15.2.4 36.5.7 47.4.8 19 .1 19.7 0 19.7-1.9 0-1.1 2.1-8.6 4.6-16.7 2.6-8.2 5.1-16.3 5.6-18.1l.9-3.2h88.5l5.2 17.2c2.9 9.5 5.2 18.1 5.2 19 0 1 .9 2.2 1.9 2.8 2.1 1.1 94.4 1 95.5-.1.4-.3-2.9-11.6-7.3-25s-11.6-35.9-16.1-49.9c-7.9-24.8-30.8-93.3-51.5-154.5l-10.2-30-8.4-.7c-4.6-.3-35.3-.6-68.1-.6-46.7-.1-59.9.2-60.7 1.2Zm73.2 92.6c1.9 5.8 6.3 19.3 9.7 30 3.3 10.7 7 21.9 8 24.8 3.3 8.8 4.8 8.2-20.4 8.2-12.4 0-22.7-.4-23-.9-.3-.4.8-4.8 2.4-9.7 7.7-23.6 15-46.7 17.1-54.6 1.3-4.7 2.4-8.6 2.5-8.5.1.1 1.7 4.9 3.7 10.7ZM1091.2 1535.9l.3 130.6 47.2.3 47.3.2.2-43.7.3-43.6 3.7 5.5c6.5 9.8 18.8 23.9 35.8 40.9 18.5 18.6 29.7 27.4 41.6 33 15.9 7.5 11.8 7.2 98.7 7.3l77.7.1V1644c0-12.4-.3-32.2-.7-44.1l-.6-21.5h-64.6c-60.4.1-64.9 0-69.4-1.7-4.7-1.9-7.4-4.8-6.2-6.7.4-.6 4.1-2.8 8.3-4.9 14.5-7.3 24.1-16.4 31.8-29.8 21-36.8 11.8-86.9-20.4-111.3-8.6-6.5-20.2-12.2-32.2-15.7l-9.5-2.8-94.8-.1-94.7-.2.2 130.7Zm163.6-54.4c12.5 5.3 15.7 20.2 6.3 29.6-5.4 5.5-9.5 6-44.6 5.7l-30-.3-.3-18.3-.2-18.2h32.5c27.1 0 33.2.3 36.3 1.5ZM383.4 1698.7l-4.1.4-.1 86.1c0 97.7.8 88.4-8.7 94.3l-4.8 3h-15.6c-11.6-.1-16.4-.4-18.6-1.5-4.4-2.2-6.5-8.9-6.7-21.1l-.2-9.9h-90.4l.2 29.7c.2 28.1.3 30.2 2.5 36.7 7.3 22.1 25.3 39.2 47.6 45.2 6.5 1.8 11.2 1.9 66 1.9 54.1 0 59.5-.2 65.4-1.8 26.5-7.5 46.6-30.2 54.2-61.3 2.2-8.8 2.2-10.1 2.6-105l.4-96.1-22.7-.6c-22.9-.7-59.4-.7-67 0ZM1210.3 1698.7l-16.3.3v82.1l21.3-.6c11.6-.3 29.3-.7 39.2-.8l18-.2.3 92 .2 92 44.5.3c24.5.2 45.5 0 46.5-.3 2-.6 2-2.3 2.2-94.3l.3-93.7 54.8-.3 54.7-.2-.2-38.3-.3-38.2H1351c-68.5 0-131.8.1-140.7.2ZM503.9 1699.4c-.7.7-.4 262.4.3 263.1.8.8 172.6 1.4 217.6.8l31.3-.5-.2-32.1c-.2-17.7-.5-35.2-.7-39l-.4-6.7H595.9l.3-10.8.3-10.7 61-.5c33.6-.3 61.1-.7 61.3-.8.2-.1.2-13.9.1-30.7l-.1-30.5h-61.3c-33.8 0-61.6-.3-61.8-.8-.2-.4-.2-5.5.1-11.4l.4-10.8 77.7-.2 77.6-.3.3-39.3.2-39.2H628.2c-68.1 0-124.1.2-124.3.4ZM781 1831v132l50.8.2c70.8.4 116.5-.1 124.3-1.2 8.9-1.3 23.1-5.5 30.5-9.1 17.9-8.5 37.4-25.3 47.8-41.3 14.6-22.2 21.1-44.3 22.3-75.2 1-26.1-3.2-47.6-13.1-67.9-10.1-20.5-23.4-36.3-40.5-47.8-13.7-9.2-26.8-14.5-47.1-19-9.1-2-12.7-2.1-92.2-2.4l-82.8-.4V1831Zm137.3-52.7 14.3.2 7.7 3.8c15.5 7.7 23.3 19.2 26.2 38.6 1.9 12.2.9 24.3-2.6 33.7-3 7.8-12.7 18-22.2 23l-7.2 3.9-29.1.3-29.1.4-.6-6.9c-.4-3.7-.7-27.3-.7-52.3v-45.5l14.5.2c8 .2 20.9.4 28.8.6ZM1081.9 1702.2c-.2 1.8-.2 61.5-.1 132.5l.4 129.3h38.2c21.1 0 41.8-.3 46.1-.7l7.8-.6-.4-131.9-.4-131.8H1082.2l-.3 3.2Z" style="fill: rgb(220, 191, 11);"/>
  </g>
</svg>