<?xml version="1.0" encoding="utf-8"?>
<svg xmlns="http://www.w3.org/2000/svg" width="500px" height="400px" version="1.0">
  <path d="M 107.352 0 L 401.57 0 L 500 400 L 0 400 L 107.352 0 Z M 380.167 50.771 L 219.78 52.505 L 213.477 54.953 C 196.959 61.346 184.452 70.306 173.678 83.34 C 160.141 99.733 153.367 118.813 153.367 140.916 C 153.367 155.933 156.009 166.865 163.122 181.752 C 170.115 196.758 178.49 207.345 196.378 224.097 C 212.677 239.337 218.289 245.735 217.829 248.41 C 216.919 253.296 216.919 253.296 101.412 252.947 C 40.731 252.714 67.663 252.947 67.323 253.296 C 66.972 253.645 41.542 354.039 41.542 354.039 C 41.542 354.039 258.779 355.668 267.039 354.504 C 283.098 352.062 305.235 339.614 317.279 326.119 C 344.349 295.873 349.739 249.225 330.47 212.697 C 324.276 200.83 315.443 190.127 295.83 170.581 C 285.278 159.996 276.56 150.689 276.56 149.876 C 276.56 148.825 293.651 148.478 351.46 148.478 L 395.142 148.478 C 395.142 148.478 393.794 138.836 380.167 50.771 Z" style="transform-origin: 250px 200px; fill: rgb(221, 166, 0);"/>
</svg>