<?xml version="1.0" encoding="utf-8"?>
<svg xmlns="http://www.w3.org/2000/svg" width="1300px" height="1900px" version="1.0">
  <g style="transform-origin:815.126px 982.308px" transform="matrix(1.006893 0 0 .98809 -185.125916 -52.307793)">
    <path d="M827.1 49.2c-4.1 4.6-11.7 13-17.1 18.8-5.3 5.8-14.8 16.1-21 23-6.3 6.9-18.2 19.7-26.5 28.5-8.2 8.8-20.9 22.5-28.1 30.5-7.2 8-13.8 15.1-14.7 15.9-2.5 2-2.1 3.5 3.1 11.4 15.5 23.1 37.8 70.5 46.9 99.7 4.5 14.4 10.4 35.8 12.2 44.4 2.2 10.2 2.2 13.7.1 6.9-3.4-10.6-23.2-42.5-38.1-61.3-12.8-16.2-59.4-62.5-62.9-62.5-.4 0-3.2 2.7-6.1 6-2.8 3.3-12.7 14.1-21.9 24s-25 27-35.1 38c-10.1 11-18.7 20.1-19.1 20.3-2.3 1.1.1 3.5 7.6 7.7 12.6 7.1 35.7 24.9 48.1 37.2 27.9 27.4 48.2 55.3 64.5 88.8 19.3 39.4 28.1 72.3 31.5 118l.6 8-6.8 2.8c-8.6 3.6-18.4 9.9-22.3 14.4-6.3 7.1-9.2 15.1-17 46.3-5.4 21.3-15.2 52.1-20 62.5-6.8 14.9-28.4 29.6-53 36.1-9.9 2.7-11.7 2.8-31.5 2.9-22.9 0-28.3-.8-47.6-7.4-38.3-12.9-73.7-47.7-96.9-95.2-11.5-23.6-20.7-53.5-26.9-87.8-1.1-6.3-2.3-11.6-2.6-11.9-1-1-2.7 5.8-4.3 17.3-1.3 9.4-1.6 20-1.6 49.5.1 39.7.4 44.7 6 78.5 7.7 47 19.9 85.3 41.7 130.5 16.5 34.3 45.5 78.8 66.5 102 2.8 3 4.9 5.7 4.7 5.8-.6.6-8.6-5.4-14-10.3-38.7-35.8-60.4-62.1-83.8-101.2-42.4-71.2-64-143.8-68.8-231.3-2.5-46.6 3.2-97.9 16.2-146.5 12.8-47.5 36.2-97.7 64.1-137.6 16.7-23.7 27.4-36.5 50.3-59.7 17.3-17.6 32.1-30.3 49.8-42.7 15.9-11.2 12.6-11.3-10.8-.4-41.4 19.3-75.8 40.6-112.5 69.8-20.8 16.6-35.3 29.6-53.1 47.7-54.8 55.6-90.3 105-122.9 170.9-18.7 37.8-26.1 56.7-39.4 100.5-7 23-14.5 57-18.5 84-8.5 57-8.9 118.9-1 177.5 8.7 65.2 28.4 129.6 58.3 191 11 22.5 22.4 42.2 39.2 67.7 30.8 46.8 63.5 85 101.4 118.7 25.4 22.5 51.2 43.1 54.1 43.1 2.2 0 23.5-48.7 38.1-87 17.1-45.2 43.6-120.8 58.8-168 4.5-14 10.8-33.6 14-43.5 8.9-27.4 21.6-71.1 23.1-79.5 1.3-7.4 1.3-6.9 2.6 26.5 2 50.8.9 63.9-8 103.5-3.8 16.5-4.1 18.3-14.2 70.5-3.6 18.7-8.8 45.2-11.5 59-16.3 82.6-29.7 162.3-27.6 165 5.1 6.3 59.3 33.5 61.5 30.8.4-.4 2.4-8 4.5-16.8 27.4-115 33.2-140.3 38.7-168 2.2-11 4.1-20.5 4.3-21.1.3-.7 3.7-.4 10.7.8 5.7.9 13.7 2.2 17.7 2.7 4.1.5 7.5 1.1 7.7 1.3.3.3-.3 4.8-7 53.3-1.9 13.7-4.6 34.4-6 46-2.8 23.2-7.5 63.1-10.5 88.5-1.1 9.1-2.2 17.7-2.5 19.1-.6 2.8 1.9 5.9 3.5 4.3 2.2-2.3 18.4-68.5 27.1-110.4 1.6-8 4.7-22.8 6.9-33 5.3-24.8 8-41.5 8-48.8 0-5.6-.3-6.3-4.4-11.3-2.5-3-4.3-5.5-4.1-5.7.2-.2 10.4.8 22.7 2.2 12.2 1.5 24.3 2.8 26.8 3.1 11.2 1.3 58.6 5.5 68.8 6.1 13.4.8 12.1-.7 15.2 17.4 2.5 14.7 15.7 75.7 24.9 115 1.6 6.9 4.1 18.7 5.6 26.2 2.6 12.8 3.5 15.2 4.9 12.9 1-1.5 3.6-86.8 3.7-120.4.1-18 .3-32.7.5-32.7.7 0 2.3 4.6 5 13.8 1.3 4.5 5.4 15.8 9 25 3.6 9.2 8.3 21.7 10.5 27.8 2.1 6.1 6.5 17.8 9.7 26 3.3 8.2 6.3 15.9 6.7 17.1.3 1.3 1.1 2.3 1.6 2.3 1.4 0 1.1-3.4-1.1-11.8-4.8-19-11.3-48.7-15-68.8-4.2-23-7.4-36-9.7-40.7-2.7-5.4.6-2.5 5.6 5 5.2 7.6 68 132.7 88.5 176.3 14.4 30.5 12.6 27.6 16.6 27.2 19.9-1.9 70.8-16.1 102-28.4 15.6-6.2 65.3-30.8 86.5-42.9 60.5-34.4 121.8-86 166.5-139.9 3.4-4.1 7.2-8.6 8.4-10 5.5-6.6 18.4-24.2 27.9-38.1 38.5-56.9 63.8-109.9 84.5-176.9 10.6-34.2 19-78.7 23.4-123 2-21.1 1.7-90.9-.5-112.5-5-47.8-10.4-75.5-23.7-121.5-16.9-58.3-46.7-120.9-81.9-172.5-13.4-19.5-34.7-47-49.8-64.1-11.4-13.1-39.2-41.2-52.3-53.1-20.5-18.7-56.4-46.2-81-61.9-21.7-14-56.4-32.5-74.5-39.8-12.9-5.2-12.8-3.3.4 5.5 24.1 16.3 53.5 44.8 78.9 76.3 24.6 30.6 55.2 83 69 118.4 14.2 35.9 24.5 76.3 30.3 118.2 2.1 14.9 2.3 20.2 2.3 54.5-.1 32.5-.4 40.8-2.3 57.5-6 53-21.7 107.3-44.6 154.6-13.4 27.7-30.9 56.5-46 75.4-16.8 21-39.2 41.4-53.3 48.5-9.8 4.9-6.4 5.6 12.1 2.5 17.4-2.9 25.4-2.5 30.8 1.9 1.7 1.3 2 2.4 1.5 4.4-1.6 6.5-17.1 12.1-47 17.2-5 .9-10 1.9-11.1 2.2-1.8.5-1.8.4-.6-1.1 2.6-3.1 8.4-5.3 18.6-7 12.3-2 30-6.4 33.8-8.3 1.6-.8 2.7-1.9 2.4-2.6-.9-2.8-8.9-2.7-30.2.3-3.8.5-10.7.9-15.2 1-9.8 0-10.5-1.1-4.3-6 2.2-1.8 5.5-5.3 7.2-7.9 1.8-2.5 5.7-7.8 8.8-11.6 13.4-16.6 31.7-46 44-70.5 28-56 47-138.7 47-204.9 0-16.7-2.3-56.4-3.6-62.4-.9-4.4-2.1-3.1-2.9 3-1.7 14.3-8.4 42.1-14.4 59.3-13.9 40.4-39.8 82.1-62.6 101-21.8 18-42.2 28.7-64.9 34-37.9 8.8-75.8 2.4-110.9-18.9-24.4-14.7-46.1-43.5-57.7-76.5-14.6-41.5-14.9-93.5-.8-143.5 20.2-72.2 71.1-139.6 132.5-175.7l10.4-6.1-5.8-6.6c-5.5-6.2-34.4-38-63.8-70.2-7.5-8.3-14.1-15.2-14.7-15.4-.5-.2-2.9 1.4-5.1 3.6-2.3 2.1-6.9 6.1-10.2 8.8-17.2 14-36.4 34.9-53.9 58.5-14.6 19.6-20.2 28.3-28 43-3.6 6.9-6.6 12.1-6.6 11.6 0-2.6 9.9-39.2 14.2-52.1 7.4-22.2 10.9-30.8 22.2-54.1 10.8-22 20.2-39.2 26.7-48.3l3.8-5.4-11.2-12.2c-6.2-6.6-16.3-17.9-22.6-25-13.9-15.9-82.4-90.3-83.2-90.4-.3-.1-3.8 3.6-7.8 8.1Zm-26.8 509.3c11.2 3.8 23.8 15.2 29.4 26.5 1.8 3.6 5.2 14.3 7.7 24.1 2.5 9.6 4.8 18.3 5.2 19.2 1 2.8-.3 1.9-2.4-1.6-4.7-7.3-8.7-12.5-14.2-18.2-5.5-5.7-5.8-6.3-5.9-11.3-.2-6.6-2.6-18.4-4.6-22.2-3.9-7.5-10.6-12.9-21-16.8-5.3-1.9-5.5-2.1-2-1.6 2.2.3 5.7 1.2 7.8 1.9Zm-24.8 2.9c5.2 2.1 8.9 6.8 11.6 14.8 1.1 3.4 2.8 7.8 3.6 9.6.8 1.9 1.2 4.3.9 5.5-1 4.2 1.7 6.5 15.4 13.4 12.1 6 14.4 7.6 22.1 15.2 4.8 4.8 10 10.8 11.7 13.4 1.9 3 7.1 17.2 13.7 37.5 5.8 18 12.3 37 14.2 42.2 4.3 11.1 5.2 18 3 23.2-2.1 5.1-9.1 8.5-24.2 11.9-11.2 2.5-11.8 2.7-9.1 3.8 1.5.6 6 1.6 9.8 2.1 11.6 1.7 42.2 9.8 52.8 14 19.6 7.8 33.9 16 46.5 26.5 3.9 3.3 15.4 14 25.6 24 14.5 14.1 20.3 19 26.5 22.5l7.9 4.5 18.5.5c17.9.5 18.7.6 24.4 3.4 7.8 3.8 16.6 12.3 16.6 15.9 0 3.1-.5 3.2-4 1.2-2.9-1.7-7.8-1.9-11.4-.5-4.3 1.6-11.5 9-15.1 15.4-18.4 33.5-17.8 92.3 1.9 160.4 11.2 38.6 35.4 87.8 50.7 103.1 3.7 3.6 10.5 8.1 12.3 8.1.9 0 8.4-20.5 12.9-35 8.4-27 16.2-65.6 19.5-97l.8-7.5.9 10c1.9 24.1-4.1 100.6-10.5 132-4 19.8-5.6 24.7-9.3 28.2-4.8 4.3-12.7 6.1-20.1 4.4-11.4-2.5-30.3-13.6-49.1-28.7-11.6-9.3-56-51.7-66-63.1-11.9-13.5-15.3-19.3-23.1-38.8-4-9.9-10.6-26.6-14.8-37-7.4-18.2-24.6-68.8-24.6-72.1 0-.4 1.7 1.5 3.8 4.4 13.2 17.6 60.1 68.2 63.3 68.2 1.2 0-4.2-8.5-11.2-17.7-3-3.8-6.9-9.4-8.7-12.4-1.9-3-10-16-18.1-28.9-18.9-30-40.8-70-44.1-80.5-.7-2.2-1.6-4.4-2-4.8-1.3-1.4-31 32.1-39.6 44.8-3.8 5.6-4 5.4-1.9-2.4.8-3.1 2.1-9.4 3-14.1 1.6-8 5.2-19.7 9-28.5 4.2-9.8 16.2-32.7 21.9-41.9 12-19.2 12.6-22.8 2-12-15.7 15.9-30 39-41.9 67.9-10.1 24.6-21.9 75.3-20.1 86.8l.7 4.2-1.7-2.5c-1-1.4-5.9-7.5-10.9-13.5-10.6-12.8-30.1-38.8-37.4-50l-5.1-7.8 2.1-3.1c1.1-1.7 5.5-10.3 9.7-19.1 4.2-8.8 11.1-22.9 15.3-31.3 4.3-8.3 7.6-15.2 7.5-15.2-.2 0-2.5 2.8-5.1 6.2-2.7 3.5-7.4 9.2-10.4 12.7-3.1 3.5-7.8 8.9-10.5 12-7.7 8.8-16.7 18.1-17.6 18.1-2 0-19-29.1-19-32.5 0-.6 7.8-9 17.4-18.6 17.1-17.2 25.6-26.7 47.1-52.8 14.7-17.8 19.5-24.8 19.5-28.3v-2.9l-9 .3c-9.3.3-10.2-.1-7.7-3.5.9-1.3 3.4-1.9 10.7-2.3 9.8-.6 21.9-3.3 27.4-6 5.2-2.7 10.6-8.5 10.6-11.5 0-5.4-23.5-74.6-31.3-92.1-6.6-14.8-17.9-25.8-34.7-33.7-5.1-2.4-6.6-2.6-18.5-2.6-9.8.1-15.6.6-23.4 2.4-18 3.9-22 5.5-29.5 11.7-13.1 10.8-19.7 23.4-33.1 63.4-3.4 10.2-8.1 22.7-10.5 27.9-2.3 5.2-5.5 13.1-7.1 17.5-3.3 9.4-3.1 10.2 4.6 15.4 7.3 4.9 14.3 6.7 26.8 6.7 9.8 0 10.7.2 10.7 1.9 0 1.8-.7 1.8-11.2 1.3-6.2-.3-14-1.3-17.3-2.2-7.6-2-18.4-7-20.1-9.3-3-3.8-1.5-9.2 11.3-41.7 18.4-46.5 23.6-62.5 30.8-94 5.5-24.4 14.2-35.6 32.3-41.6 6.9-2.3 22.3-2 28.7.5Zm11.5 77c0 .7-.7 3.3-1.5 5.6-1.9 5.5-1.9 9.3.2 13.3 1.8 3.5 3 17.2 1.4 16.3-.5-.4-1.2-.2-1.6.4-.3.5-1.5 1-2.6 1-2.4 0-2.2-2.8.4-7.8 1.4-2.4 1.5-3.7.7-5.2-.6-1.1-1.4-2-1.8-2-.4 0-2.5-2.2-4.6-4.9-3.6-4.8-3.7-5.1-2.6-9.1 1.5-5.5 5-9 9-9 1.9 0 3 .5 3 1.4Zm-31.4 11.5c-.1.9 1.5 1.9 4 2.7 9.1 2.7 18.2 8.9 17.1 11.8-.4 1-1.2 1.4-1.8 1-.7-.4-1 .1-.7 1.2.2 1.1 1.3 2 2.6 2.2 1.2.2 2.2 1 2.2 1.8v2.1c0 .4-4.7.5-10.5.4-13.9-.3-13.8 1.7.3 5.4 3.3.8 8 2.6 10.5 4 4.3 2.4 4.5 2.8 3.6 5.4-.8 2.1-3.1 3.7-10.9 7.6-5.5 2.7-10 5.3-10 5.8 0 .4.8.6 1.8.3.9-.3 4.5-1 7.8-1.6 5.4-.9 6.8-.8 11.8 1.1 6.2 2.4 7 4.1 2.9 5.7-1.6.5-6.4 2.4-10.8 4-4.4 1.7-8.9 3.3-9.9 3.6-3.6 1.2-.4 2 7.9 2.1 10.1 0 12.2 1.3 7.2 4.3-2.1 1.2-3.4 2.7-3.4 3.8.3 3.5-11.7 4.5-21.8 1.9-13.9-3.7-22.1-9.5-27.1-19.2-2.5-5.1-2.9-6.8-2.7-13.6.1-6.2.7-8.9 3-14 3.9-8.1 17.6-29.2 20-30.6 2.6-1.5 7-1 6.9.8Zm62 47.8c-.9 5.8-2.6 12.9-3.7 15.7-5.1 12.5-5.2 12.6-7.4 12.6-3 0-3.7-1-2-2.7.8-.8 1.5-2.4 1.5-3.5s.9-3.5 2-5.3c1.9-3.1 8.9-28.2 9.1-32.8.1-1.4.5-.8 1.1 1.6.8 2.9.6 6.5-.6 14.4ZM794 711c0 .5-.5 1-1.1 1-.5 0-.7-.5-.4-1 .3-.6.8-1 1.1-1 .2 0 .4.4.4 1Zm-50.1 22.1c5.3 5 10.4 10.5 11.3 12.3 2 3.6 5.5 13.8 7.2 21 1.2 5.3 3.6 7.5 3.6 3.3 0-1.4-1.1-7.4-2.5-13.3s-2.5-11.7-2.3-12.8c.7-4.9 6.7 8 6.8 14.6 0 2 .9 5.8 2 8.4 2.5 5.7 2 8.9-2 13.3-3.2 3.4-4 7.1-1.6 7.1 4.2 0 30.8-14.1 40.6-21.5 6.2-4.7 8-5.8 8-5.2 0 .3-6.3 7.6-14.1 16.4-7.8 8.7-18.8 22.1-24.6 29.8-11.6 15.5-29.4 36.5-30.5 35.9-1.3-.8-17.8-34.3-22.1-45-2.5-6-5.2-14.3-6.2-18.4-.9-4.1-2-9.2-2.5-11.2-.4-2-.5-4-.2-4.3.9-.9 9-.5 11.4.6 1.3.5 4.7 4.6 7.7 8.9 3 4.4 5.6 7.8 5.8 7.6.3-.2-.7-4-2.1-8.5-1.4-4.4-3-10.9-3.6-14.3-1.1-6.7-1.4-33.8-.4-33.8.3 0 4.9 4.1 10.3 9.1Zm61.1 1.1c-2.5 4.8-6 7.4-6 4.5 0-1.5 5.9-8.1 6.6-7.4.3.3 0 1.6-.6 2.9Zm-27 32.3c-.7.9-1.5 1.3-1.7 1.1-.7-.7.7-2.6 1.9-2.6.6 0 .6.6-.2 1.5Zm-75 0c0 2.5 3.5 25.1 5.1 32.5 2.5 12 11.5 40.5 18.2 57.5 6.2 15.9 22.4 48.1 33.7 67 9.4 15.8 29.2 45.6 39.8 59.6 15.9 21.2 22.5 28.3 48.1 51.2l2.4 2.2-5.4.8c-6.8 1.1-102.4 1.4-110.1.3-4.8-.6-5.7-1.1-6.2-3.1-.3-1.3-4.7-7.5-9.7-13.7C696 992.2 667 941.5 653 905.6c-2.8-7.2-6.2-15.8-7.5-19.1-1.3-3.3-3.4-8.9-4.6-12.5-2.1-6.1-4.8-11.1-3.6-6.5.3 1.1 1.5 7.2 2.7 13.5 5.6 30.4 15.3 63.4 25.4 86.3 7.5 17.1 12 25 19.1 33.7 5.7 7 26.8 27.8 32.5 32.1 1.9 1.5 3.3 2.9 3 3.2-.3.3-2.5.1-5-.4s-11.2-1.8-19.5-2.9c-18.9-2.5-22.7-3.3-40.5-8.1-20.9-5.7-24.3-7.6-30.6-17.2-6.4-9.7-8.7-12.2-14.6-15.5-2.7-1.5-4.8-3.2-4.8-3.9 0-.7 2.3-6.8 5-13.6 3.7-9.1 5-13.7 5-17.3 0-5.3-1.8-19.6-7.5-59.4-2-14-4.7-34.7-6-46-4.8-41.6-6.5-55.6-7.1-57.7-.5-1.7 0-2.5 2.3-3.6 11.7-6.1 106.3-27.6 106.3-24.2Zm464.6 49c.7 1.7-5.4 15.1-8.7 19.3-5.5 7.1-25.8 28.7-29.3 31.3-4.1 3-9.6 3.9-9.6 1.6.1-.6 3-4.6 6.6-8.7 3.6-4.1 13.1-15.4 21.1-25 17.5-21 18.6-22 19.9-18.5Zm-39.2 4.8c1.7 1.3 1.6 1.7-1.3 8.7-5.9 13.8-17.7 31-24.5 35.6-3.7 2.6-10.6 4.1-10.6 2.3 0-.6 1.7-3.2 3.8-5.8 5-6 15.5-21.3 22.6-32.9 3.2-5 6.3-9.2 7-9.2.7 0 2 .6 3 1.3Zm-36.1 20.1c.9.7 1.7 1.9 1.7 2.5 0 1.9-2.9 7.1-7.1 12.6-2 2.7-6.5 9.9-10 16-3.4 6-8.9 14.7-12.1 19.2-8.8 12.3-23.9 25.6-27 23.7-.8-.5-.5-2.7 2.4-16.9 2.3-11.7 6.3-22.2 8.9-23.5 1-.6 4.5-1 7.8-1 5.5 0 6.4-.3 9.5-3.3 1.9-1.7 5.6-6.8 8.2-11.2 7.5-12.5 12.8-19.5 14.8-19.5.6 0 1.9.7 2.9 1.4Zm37.6 68.8c-2.2 4.3-10.2 14.6-17.6 22.4-9 9.7-24.3 18.4-42.4 24.2-12.6 4-16.9 4.8-16.9 3.1 0-.9 5.1-3.1 13.8-6 15.5-5.3 25.5-10.6 35.7-18.9 7.2-5.9 19.4-18.3 25.4-25.7 1.9-2.4 3.6-4.1 3.8-3.9.3.2-.6 2.4-1.8 4.8Zm-487.2 129.2c11 3.5 22.6 6.3 31.3 7.6 11.2 1.6 11 1.5 11 6.4 0 2.3-.3 4.5-.6 4.8-.3.4-2 .2-3.7-.3-1.8-.6-7.9-1.8-13.7-2.9-5.8-1-11.8-2.3-13.4-2.9-2.4-1-3.1-.9-4.1.5-1 1.5-2.2 1.6-8.6.8l-7.4-.9-.3-7.8c-.2-4.6.1-7.7.7-7.7s4.5 1.1 8.8 2.4Zm244.3 5.4c.9 1.9 1.4 10.6 1.8 29.9.4 26.7.4 27.3-1.5 27.3-2 0-2.1-.9-2.6-26.3-.3-14.4-1-27.7-1.6-29.6-.6-1.9-.8-3.8-.5-4.2.8-1.4 3.1.1 4.4 2.9Zm-10.4 4.4c.4.6.9 8.1 1.2 16.6.4 12.4.2 15.6-.9 16.3-.8.5-10.2.9-20.9.9h-19.6l-1.7-13.8c-.9-7.5-1.9-15.1-2.3-16.9l-.6-3.2 7.3-.4c19.4-.9 36.8-.7 37.5.5Zm-176.3 3.3c-.2 1.1-.4 3.7-.5 5.7-.1 2.1-.3 3.8-.4 3.8-.2 0-1.4-.4-2.8-1-2.3-.8-2.6-1.5-2.6-6v-5.1l3.3.3c2.5.2 3.1.7 3 2.3Zm66.2 3.3c9.6.6 11 .9 10.9 2.4 0 1-.1 10.2-.2 20.4l-.2 18.6-25-.4c-27.5-.3-27.7-.4-25.7-6.2 1.3-3.6 1.6-28.6.4-33.1l-.8-3 14.8.3c8.2.2 19.8.7 25.8 1Zm45.3 13.6c.2 1-.1 2.3-.7 2.9-1.5 1.5-4.6-1.6-3.7-3.8.8-2.1 4-1.5 4.4.9Zm-163.5.2c1.5.3 2.7 1.2 2.7 1.9 0 1-.9 1.1-3.7.4-2.1-.5-5.2-.9-6.9-.9-1.6 0-3.9-.7-5-1.6-1.8-1.4-1.4-1.5 4.1-.9 3.3.3 7.2.8 8.8 1.1Zm8 3.1c-.7.2-1.9.2-2.5 0-.7-.3-.2-.5 1.2-.5s1.9.2 1.3.5Zm6.5 1c-1 .2-2.6.2-3.5 0-1-.3-.2-.5 1.7-.5s2.7.2 1.8.5Zm5.5 1c-.7.2-1.9.2-2.5 0-.7-.3-.2-.5 1.2-.5s1.9.2 1.3.5Zm5.4.9c-.3.3-1.2.4-1.9.1-.8-.3-.5-.6.6-.6 1.1-.1 1.7.2 1.3.5Zm12.6 2.1c-.7.2-1.9.2-2.5 0-.7-.3-.2-.5 1.2-.5s1.9.2 1.3.5Zm13.6 1.9c1.1 1-.8 1-5.9-.2l-5.5-1.3 5.5.5c3 .3 5.7.7 5.9 1Zm20.4-.2c1 2.4-.4 5.6-2.4 5.6-2.2 0-2.6-3.9-.7-5.8 1.6-1.6 2.5-1.5 3.1.2Zm-52.3 7.1c17.3 2.4 33.9 4.9 36.9 5.5 2.9.5 7.6 1 10.4 1h5l-.6 3.7c-1.1 6.8-2.4 7.3-17.5 6.2-12.9-.8-46.4-4.8-58.8-7l-6.2-1.1-.6-4.1c-.4-2.3-.9-5.2-1.3-6.5-.3-1.2-.1-2.2.3-2.2.5 0 15.1 2 32.4 4.5Zm210.7 7.6c-.3 3.5-1.1 6.5-1.9 7-.7.5-10.8.9-22.5.9h-21.2l.6-3.8c1.3-8.2 0-7.6 20.4-8.8 10.1-.6 19.9-1.1 21.8-1.2l3.4-.2-.6 6.1Z" style="fill: rgb(190, 144, 46);"/>
    <path d="M739.9 601.7c-1.3 1.6-1.2 1.7.4.4.9-.7 1.7-1.5 1.7-1.7 0-.8-.8-.3-2.1 1.3ZM684.7 803.6c-2.6 4.2-1.4 25.3 2.5 44.9 5.2 26.5 20.5 68.7 36.2 99.9 7.7 15.3 29.7 53.8 30.4 53.1.2-.2-3.7-9.5-8.8-20.7-9.7-21.2-24.7-57-29.5-69.8-14-38.1-24.8-75.3-27.5-95-1.3-9.4-2.4-13.7-3.3-12.4ZM639.7 994.5c2.9 5.3 17.3 16 27.4 20.4 11.4 5 11.7 3.2.4-2.8-10.8-5.8-19.6-11.5-25.2-16.4-2.5-2.2-3.3-2.6-2.6-1.2Z" style="fill: rgb(190, 144, 46);"/>
  </g>
  <g style="transform-origin:815.126px 982.308px" transform="matrix(1.006893 0 0 .98809 -185.125916 -52.307793)">
    <path d="m621.5 1406-186 .5-5.5 2.1c-14.4 5.5-25.3 13.2-34.7 24.4-11.8 14.1-17.7 30.5-17.7 49.5 0 12.9 2.3 22.3 8.5 35.1 6.1 12.9 13.4 22 29 36.4 14.2 13.1 19.1 18.6 18.7 20.9-.8 4.2-.8 4.2-101.5 3.9-52.9-.2-96.4 0-96.7.3-.3.3-.9 19.9-1.3 43.6l-.6 43 25.8.6c38.1 1 210 .8 217.2-.2 14-2.1 33.3-12.8 43.8-24.4 23.6-26 28.3-66.1 11.5-97.5-5.4-10.2-13.1-19.4-30.2-36.2-9.2-9.1-16.8-17.1-16.8-17.8 0-.9 14.9-1.2 65.3-1.2h65.4l-.5 88.3-.5 88.4 3.3.6c1.8.4 22.3.7 45.6.7H706v-176.7l30.8-.6c16.9-.4 40.6-.7 52.8-.7h22.1l.6-40.6c.3-22.4.3-41.2.1-41.8-.2-.6-1.4-1.1-2.7-1.1-1.2 0-85.9.2-188.2.5ZM852.1 1406.4c-.6.7-4.5 13.1-8.6 27.7-4.2 14.5-10.9 36.7-15 49.4-4 12.6-11 34.9-15.5 49.5-4.5 14.6-12.6 40.7-18 58-5.5 17.3-12.8 41.2-16.4 53l-6.4 21.5 27.7.6c15.2.4 36.5.7 47.4.8 19 .1 19.7 0 19.7-1.9 0-1.1 2.1-8.6 4.6-16.7 2.6-8.2 5.1-16.3 5.6-18.1l.9-3.2h88.5l5.2 17.2c2.9 9.5 5.2 18.1 5.2 19 0 1 .9 2.2 1.9 2.8 2.1 1.1 94.4 1 95.5-.1.4-.3-2.9-11.6-7.3-25s-11.6-35.9-16.1-49.9c-7.9-24.8-30.8-93.3-51.5-154.5l-10.2-30-8.4-.7c-4.6-.3-35.3-.6-68.1-.6-46.7-.1-59.9.2-60.7 1.2Zm73.2 92.6c1.9 5.8 6.3 19.3 9.7 30 3.3 10.7 7 21.9 8 24.8 3.3 8.8 4.8 8.2-20.4 8.2-12.4 0-22.7-.4-23-.9-.3-.4.8-4.8 2.4-9.7 7.7-23.6 15-46.7 17.1-54.6 1.3-4.7 2.4-8.6 2.5-8.5.1.1 1.7 4.9 3.7 10.7ZM1091.2 1535.9l.3 130.6 47.2.3 47.3.2.2-43.7.3-43.6 3.7 5.5c6.5 9.8 18.8 23.9 35.8 40.9 18.5 18.6 29.7 27.4 41.6 33 15.9 7.5 11.8 7.2 98.7 7.3l77.7.1V1644c0-12.4-.3-32.2-.7-44.1l-.6-21.5h-64.6c-60.4.1-64.9 0-69.4-1.7-4.7-1.9-7.4-4.8-6.2-6.7.4-.6 4.1-2.8 8.3-4.9 14.5-7.3 24.1-16.4 31.8-29.8 21-36.8 11.8-86.9-20.4-111.3-8.6-6.5-20.2-12.2-32.2-15.7l-9.5-2.8-94.8-.1-94.7-.2.2 130.7Zm163.6-54.4c12.5 5.3 15.7 20.2 6.3 29.6-5.4 5.5-9.5 6-44.6 5.7l-30-.3-.3-18.3-.2-18.2h32.5c27.1 0 33.2.3 36.3 1.5ZM383.4 1698.7l-4.1.4-.1 86.1c0 97.7.8 88.4-8.7 94.3l-4.8 3h-15.6c-11.6-.1-16.4-.4-18.6-1.5-4.4-2.2-6.5-8.9-6.7-21.1l-.2-9.9h-90.4l.2 29.7c.2 28.1.3 30.2 2.5 36.7 7.3 22.1 25.3 39.2 47.6 45.2 6.5 1.8 11.2 1.9 66 1.9 54.1 0 59.5-.2 65.4-1.8 26.5-7.5 46.6-30.2 54.2-61.3 2.2-8.8 2.2-10.1 2.6-105l.4-96.1-22.7-.6c-22.9-.7-59.4-.7-67 0ZM1210.3 1698.7l-16.3.3v82.1l21.3-.6c11.6-.3 29.3-.7 39.2-.8l18-.2.3 92 .2 92 44.5.3c24.5.2 45.5 0 46.5-.3 2-.6 2-2.3 2.2-94.3l.3-93.7 54.8-.3 54.7-.2-.2-38.3-.3-38.2H1351c-68.5 0-131.8.1-140.7.2ZM503.9 1699.4c-.7.7-.4 262.4.3 263.1.8.8 172.6 1.4 217.6.8l31.3-.5-.2-32.1c-.2-17.7-.5-35.2-.7-39l-.4-6.7H595.9l.3-10.8.3-10.7 61-.5c33.6-.3 61.1-.7 61.3-.8.2-.1.2-13.9.1-30.7l-.1-30.5h-61.3c-33.8 0-61.6-.3-61.8-.8-.2-.4-.2-5.5.1-11.4l.4-10.8 77.7-.2 77.6-.3.3-39.3.2-39.2H628.2c-68.1 0-124.1.2-124.3.4ZM781 1831v132l50.8.2c70.8.4 116.5-.1 124.3-1.2 8.9-1.3 23.1-5.5 30.5-9.1 17.9-8.5 37.4-25.3 47.8-41.3 14.6-22.2 21.1-44.3 22.3-75.2 1-26.1-3.2-47.6-13.1-67.9-10.1-20.5-23.4-36.3-40.5-47.8-13.7-9.2-26.8-14.5-47.1-19-9.1-2-12.7-2.1-92.2-2.4l-82.8-.4V1831Zm137.3-52.7 14.3.2 7.7 3.8c15.5 7.7 23.3 19.2 26.2 38.6 1.9 12.2.9 24.3-2.6 33.7-3 7.8-12.7 18-22.2 23l-7.2 3.9-29.1.3-29.1.4-.6-6.9c-.4-3.7-.7-27.3-.7-52.3v-45.5l14.5.2c8 .2 20.9.4 28.8.6ZM1081.9 1702.2c-.2 1.8-.2 61.5-.1 132.5l.4 129.3h38.2c21.1 0 41.8-.3 46.1-.7l7.8-.6-.4-131.9-.4-131.8H1082.2l-.3 3.2Z" style="fill: rgb(220, 191, 11);"/>
  </g>
</svg>