<?xml version="1.0" encoding="utf-8"?>
<svg version="1.0" xmlns="http://www.w3.org/2000/svg" width="1300pt" height="1900pt" preserveAspectRatio="xMidYMid meet">
  <g transform="matrix(1.006893, 0, 0, 0.98809, -185.125916, -52.307793)" style="transform-origin: 815.126px 982.308px;">
    <title>mark</title>
    <path d="M 827.1 49.2 C 823 53.8 815.4 62.2 810 68 C 804.7 73.8 795.2 84.1 789 91 C 782.7 97.9 770.8 110.7 762.5 119.5 C 754.3 128.3 741.6 142 734.4 150 C 727.2 158 720.6 165.1 719.7 165.9 C 717.2 167.9 717.6 169.4 722.8 177.3 C 738.3 200.4 760.6 247.8 769.7 277 C 774.2 291.4 780.1 312.8 781.9 321.4 C 784.1 331.6 784.1 335.1 782 328.3 C 778.6 317.7 758.8 285.8 743.9 267 C 731.1 250.8 684.5 204.5 681 204.5 C 680.6 204.5 677.8 207.2 674.9 210.5 C 672.1 213.8 662.2 224.6 653 234.5 C 643.8 244.4 628 261.5 617.9 272.5 C 607.8 283.5 599.2 292.6 598.8 292.8 C 596.5 293.9 598.9 296.3 606.4 300.5 C 619 307.6 642.1 325.4 654.5 337.7 C 682.4 365.1 702.7 393 719 426.5 C 738.3 465.9 747.1 498.8 750.5 544.5 L 751.1 552.5 L 744.3 555.3 C 735.7 558.9 725.9 565.2 722 569.7 C 715.7 576.8 712.8 584.8 705 616 C 699.6 637.3 689.8 668.1 685 678.5 C 678.2 693.4 656.6 708.1 632 714.6 C 622.1 717.3 620.3 717.4 600.5 717.5 C 577.6 717.5 572.2 716.7 552.9 710.1 C 514.6 697.2 479.2 662.4 456 614.9 C 444.5 591.3 435.3 561.4 429.1 527.1 C 428 520.8 426.8 515.5 426.5 515.2 C 425.5 514.2 423.8 521 422.2 532.5 C 420.9 541.9 420.6 552.5 420.6 582 C 420.7 621.7 421 626.7 426.6 660.5 C 434.3 707.5 446.5 745.8 468.3 791 C 484.8 825.3 513.8 869.8 534.8 893 C 537.6 896 539.7 898.7 539.5 898.8 C 538.9 899.4 530.9 893.4 525.5 888.5 C 486.8 852.7 465.1 826.4 441.7 787.3 C 399.3 716.1 377.7 643.5 372.9 556 C 370.4 509.4 376.1 458.1 389.1 409.5 C 401.9 362 425.3 311.8 453.2 271.9 C 469.9 248.2 480.6 235.4 503.5 212.2 C 520.8 194.6 535.6 181.9 553.3 169.5 C 569.2 158.3 565.9 158.2 542.5 169.1 C 501.1 188.4 466.7 209.7 430 238.9 C 409.2 255.5 394.7 268.5 376.9 286.6 C 322.1 342.2 286.6 391.6 254 457.5 C 235.3 495.3 227.9 514.2 214.6 558 C 207.6 581 200.1 615 196.1 642 C 187.6 699 187.2 760.9 195.1 819.5 C 203.8 884.7 223.5 949.1 253.4 1010.5 C 264.4 1033 275.8 1052.7 292.6 1078.2 C 323.4 1125 356.1 1163.2 394 1196.9 C 419.4 1219.4 445.2 1240 448.1 1240 C 450.3 1240 471.6 1191.3 486.2 1153 C 503.3 1107.8 529.8 1032.2 545 985 C 549.5 971 555.8 951.4 559 941.5 C 567.9 914.1 580.6 870.4 582.1 862 C 583.4 854.6 583.4 855.1 584.7 888.5 C 586.7 939.3 585.6 952.4 576.7 992 C 572.9 1008.5 572.6 1010.3 562.5 1062.5 C 558.9 1081.2 553.7 1107.7 551 1121.5 C 534.7 1204.1 521.3 1283.8 523.4 1286.5 C 528.5 1292.8 582.7 1320 584.9 1317.3 C 585.3 1316.9 587.3 1309.3 589.4 1300.5 C 616.8 1185.5 622.6 1160.2 628.1 1132.5 C 630.3 1121.5 632.2 1112 632.4 1111.4 C 632.7 1110.7 636.1 1111 643.1 1112.2 C 648.8 1113.1 656.8 1114.4 660.8 1114.9 C 664.9 1115.4 668.3 1116 668.5 1116.2 C 668.8 1116.5 668.2 1121 661.5 1169.5 C 659.6 1183.2 656.9 1203.9 655.5 1215.5 C 652.7 1238.7 648 1278.6 645 1304 C 643.9 1313.1 642.8 1321.7 642.5 1323.1 C 641.9 1325.9 644.4 1329 646 1327.4 C 648.2 1325.1 664.4 1258.9 673.1 1217 C 674.7 1209 677.8 1194.2 680 1184 C 685.3 1159.2 688 1142.5 688 1135.2 C 688 1129.6 687.7 1128.9 683.6 1123.9 C 681.1 1120.9 679.3 1118.4 679.5 1118.2 C 679.7 1118 689.9 1119 702.2 1120.4 C 714.4 1121.9 726.5 1123.2 729 1123.5 C 740.2 1124.8 787.6 1129 797.8 1129.6 C 811.2 1130.4 809.9 1128.9 813 1147 C 815.5 1161.7 828.7 1222.7 837.9 1262 C 839.5 1268.9 842 1280.7 843.5 1288.2 C 846.1 1301 847 1303.4 848.4 1301.1 C 849.4 1299.6 852 1214.3 852.1 1180.7 C 852.2 1162.7 852.4 1148 852.6 1148 C 853.3 1148 854.9 1152.6 857.6 1161.8 C 858.9 1166.3 863 1177.6 866.6 1186.8 C 870.2 1196 874.9 1208.5 877.1 1214.6 C 879.2 1220.7 883.6 1232.4 886.8 1240.6 C 890.1 1248.8 893.1 1256.5 893.5 1257.7 C 893.8 1259 894.6 1260 895.1 1260 C 896.5 1260 896.2 1256.6 894 1248.2 C 889.2 1229.2 882.7 1199.5 879 1179.4 C 874.8 1156.4 871.6 1143.4 869.3 1138.7 C 866.6 1133.3 869.9 1136.2 874.9 1143.7 C 880.1 1151.3 942.9 1276.4 963.4 1320 C 977.8 1350.5 976 1347.6 980 1347.2 C 999.9 1345.3 1050.8 1331.1 1082 1318.8 C 1097.6 1312.6 1147.3 1288 1168.5 1275.9 C 1229 1241.5 1290.3 1189.9 1335 1136 C 1338.4 1131.9 1342.2 1127.4 1343.4 1126 C 1348.9 1119.4 1361.8 1101.8 1371.3 1087.9 C 1409.8 1031 1435.1 978 1455.8 911 C 1466.4 876.8 1474.8 832.3 1479.2 788 C 1481.2 766.9 1480.9 697.1 1478.7 675.5 C 1473.7 627.7 1468.3 600 1455 554 C 1438.1 495.7 1408.3 433.1 1373.1 381.5 C 1359.7 362 1338.4 334.5 1323.3 317.4 C 1311.9 304.3 1284.1 276.2 1271 264.3 C 1250.5 245.6 1214.6 218.1 1190 202.4 C 1168.3 188.4 1133.6 169.9 1115.5 162.6 C 1102.6 157.4 1102.7 159.3 1115.9 168.1 C 1140 184.4 1169.4 212.9 1194.8 244.4 C 1219.4 275 1250 327.4 1263.8 362.8 C 1278 398.7 1288.3 439.1 1294.1 481 C 1296.2 495.9 1296.4 501.2 1296.4 535.5 C 1296.3 568 1296 576.3 1294.1 593 C 1288.1 646 1272.4 700.3 1249.5 747.6 C 1236.1 775.3 1218.6 804.1 1203.5 823 C 1186.7 844 1164.3 864.4 1150.2 871.5 C 1140.4 876.4 1143.8 877.1 1162.3 874 C 1179.7 871.1 1187.7 871.5 1193.1 875.9 C 1194.8 877.2 1195.1 878.3 1194.6 880.3 C 1193 886.8 1177.5 892.4 1147.6 897.5 C 1142.6 898.4 1137.6 899.4 1136.5 899.7 C 1134.7 900.2 1134.7 900.1 1135.9 898.6 C 1138.5 895.5 1144.3 893.3 1154.5 891.6 C 1166.8 889.6 1184.5 885.2 1188.3 883.3 C 1189.9 882.5 1191 881.4 1190.7 880.7 C 1189.8 877.9 1181.8 878 1160.5 881 C 1156.7 881.5 1149.8 881.9 1145.3 882 C 1135.5 882 1134.8 880.9 1141 876 C 1143.2 874.2 1146.5 870.7 1148.2 868.1 C 1150 865.6 1153.9 860.3 1157 856.5 C 1170.4 839.9 1188.7 810.5 1201 786 C 1229 730 1248 647.3 1248 581.1 C 1248 564.4 1245.7 524.7 1244.4 518.7 C 1243.5 514.3 1242.3 515.6 1241.5 521.7 C 1239.8 536 1233.1 563.8 1227.1 581 C 1213.2 621.4 1187.3 663.1 1164.5 682 C 1142.7 700 1122.3 710.7 1099.6 716 C 1061.7 724.8 1023.8 718.4 988.7 697.1 C 964.3 682.4 942.6 653.6 931 620.6 C 916.4 579.1 916.1 527.1 930.2 477.1 C 950.4 404.9 1001.3 337.5 1062.7 301.4 L 1073.1 295.3 L 1067.3 288.7 C 1061.8 282.5 1032.9 250.7 1003.5 218.5 C 996 210.2 989.4 203.3 988.8 203.1 C 988.3 202.9 985.9 204.5 983.7 206.7 C 981.4 208.8 976.8 212.8 973.5 215.5 C 956.3 229.5 937.1 250.4 919.6 274 C 905 293.6 899.4 302.3 891.6 317 C 888 323.9 885 329.1 885 328.6 C 885 326 894.9 289.4 899.2 276.5 C 906.6 254.3 910.1 245.7 921.4 222.4 C 932.2 200.4 941.6 183.2 948.1 174.1 L 951.9 168.7 L 940.7 156.5 C 934.5 149.9 924.4 138.6 918.1 131.5 C 904.2 115.6 835.7 41.2 834.9 41.1 C 834.6 41 831.1 44.7 827.1 49.2 Z M 800.3 558.5 C 811.5 562.3 824.1 573.7 829.7 585 C 831.5 588.6 834.9 599.3 837.4 609.1 C 839.9 618.7 842.2 627.4 842.6 628.3 C 843.6 631.1 842.3 630.2 840.2 626.7 C 835.5 619.4 831.5 614.2 826 608.5 C 820.5 602.8 820.2 602.2 820.1 597.2 C 819.9 590.6 817.5 578.8 815.5 575 C 811.6 567.5 804.9 562.1 794.5 558.2 C 789.2 556.3 789 556.1 792.5 556.6 C 794.7 556.9 798.2 557.8 800.3 558.5 Z M 775.5 561.4 C 780.7 563.5 784.4 568.2 787.1 576.2 C 788.2 579.6 789.9 584 790.7 585.8 C 791.5 587.7 791.9 590.1 791.6 591.3 C 790.6 595.5 793.3 597.8 807 604.7 C 819.1 610.7 821.4 612.3 829.1 619.9 C 833.9 624.7 839.1 630.7 840.8 633.3 C 842.7 636.3 847.9 650.5 854.5 670.8 C 860.3 688.8 866.8 707.8 868.7 713 C 873 724.1 873.9 731 871.7 736.2 C 869.6 741.3 862.6 744.7 847.5 748.1 C 836.3 750.6 835.7 750.8 838.4 751.9 C 839.9 752.5 844.4 753.5 848.2 754 C 859.8 755.7 890.4 763.8 901 768 C 920.6 775.8 934.9 784 947.5 794.5 C 951.4 797.8 962.9 808.5 973.1 818.5 C 987.6 832.6 993.4 837.5 999.6 841 L 1007.5 845.5 L 1026 846 C 1043.9 846.5 1044.7 846.6 1050.4 849.4 C 1058.2 853.2 1067 861.7 1067 865.3 C 1067 868.4 1066.5 868.5 1063 866.5 C 1060.1 864.8 1055.2 864.6 1051.6 866 C 1047.3 867.6 1040.1 875 1036.5 881.4 C 1018.1 914.9 1018.7 973.7 1038.4 1041.8 C 1049.6 1080.4 1073.8 1129.6 1089.1 1144.9 C 1092.8 1148.5 1099.6 1153 1101.4 1153 C 1102.3 1153 1109.8 1132.5 1114.3 1118 C 1122.7 1091 1130.5 1052.4 1133.8 1021 L 1134.6 1013.5 L 1135.5 1023.5 C 1137.4 1047.6 1131.4 1124.1 1125 1155.5 C 1121 1175.3 1119.4 1180.2 1115.7 1183.7 C 1110.9 1188 1103 1189.8 1095.6 1188.1 C 1084.2 1185.6 1065.3 1174.5 1046.5 1159.4 C 1034.9 1150.1 990.5 1107.7 980.5 1096.3 C 968.6 1082.8 965.2 1077 957.4 1057.5 C 953.4 1047.6 946.8 1030.9 942.6 1020.5 C 935.2 1002.3 918 951.7 918 948.4 C 918 948 919.7 949.9 921.8 952.8 C 935 970.4 981.9 1021 985.1 1021 C 986.3 1021 980.9 1012.5 973.9 1003.3 C 970.9 999.5 967 993.9 965.2 990.9 C 963.3 987.9 955.2 974.9 947.1 962 C 928.2 932 906.3 892 903 881.5 C 902.3 879.3 901.4 877.1 901 876.7 C 899.7 875.3 870 908.8 861.4 921.5 C 857.6 927.1 857.4 926.9 859.5 919.1 C 860.3 916 861.6 909.7 862.5 905 C 864.1 897 867.7 885.3 871.5 876.5 C 875.7 866.7 887.7 843.8 893.4 834.6 C 905.4 815.4 906 811.8 895.4 822.6 C 879.7 838.5 865.4 861.6 853.5 890.5 C 843.4 915.1 831.6 965.8 833.4 977.3 L 834.1 981.5 L 832.4 979 C 831.4 977.6 826.5 971.5 821.5 965.5 C 810.9 952.7 791.4 926.7 784.1 915.5 L 779 907.7 L 781.1 904.6 C 782.2 902.9 786.6 894.3 790.8 885.5 C 795 876.7 801.9 862.6 806.1 854.2 C 810.4 845.9 813.7 839 813.6 839 C 813.4 839 811.1 841.8 808.5 845.2 C 805.8 848.7 801.1 854.4 798.1 857.9 C 795 861.4 790.3 866.8 787.6 869.9 C 779.9 878.7 770.9 888 770 888 C 768 888 751 858.9 751 855.5 C 751 854.9 758.8 846.5 768.4 836.9 C 785.5 819.7 794 810.2 815.5 784.1 C 830.2 766.3 835 759.3 835 755.8 L 835 752.9 L 826 753.2 C 816.7 753.5 815.8 753.1 818.3 749.7 C 819.2 748.4 821.7 747.8 829 747.4 C 838.8 746.8 850.9 744.1 856.4 741.4 C 861.6 738.7 867 732.9 867 729.9 C 867 724.5 843.5 655.3 835.7 637.8 C 829.1 623 817.8 612 801 604.1 C 795.9 601.7 794.4 601.5 782.5 601.5 C 772.7 601.6 766.9 602.1 759.1 603.9 C 741.1 607.8 737.1 609.4 729.6 615.6 C 716.5 626.4 709.9 639 696.5 679 C 693.1 689.2 688.4 701.7 686 706.9 C 683.7 712.1 680.5 720 678.9 724.4 C 675.6 733.8 675.8 734.6 683.5 739.8 C 690.8 744.7 697.8 746.5 710.3 746.5 C 720.1 746.5 721 746.7 721 748.4 C 721 750.2 720.3 750.2 709.8 749.7 C 703.6 749.4 695.8 748.4 692.5 747.5 C 684.9 745.5 674.1 740.5 672.4 738.2 C 669.4 734.4 670.9 729 683.7 696.5 C 702.1 650 707.3 634 714.5 602.5 C 720 578.1 728.7 566.9 746.8 560.9 C 753.7 558.6 769.1 558.9 775.5 561.4 Z M 787 638.4 C 787 639.1 786.3 641.7 785.5 644 C 783.6 649.5 783.6 653.3 785.7 657.3 C 787.5 660.8 788.7 674.5 787.1 673.6 C 786.6 673.2 785.9 673.4 785.5 674 C 785.2 674.5 784 675 782.9 675 C 780.5 675 780.7 672.2 783.3 667.2 C 784.7 664.8 784.8 663.5 784 662 C 783.4 660.9 782.6 660 782.2 660 C 781.8 660 779.7 657.8 777.6 655.1 C 774 650.3 773.9 650 775 646 C 776.5 640.5 780 637 784 637 C 785.9 637 787 637.5 787 638.4 Z M 755.6 649.9 C 755.5 650.8 757.1 651.8 759.6 652.6 C 768.7 655.3 777.8 661.5 776.7 664.4 C 776.3 665.4 775.5 665.8 774.9 665.4 C 774.2 665 773.9 665.5 774.2 666.6 C 774.4 667.7 775.5 668.6 776.8 668.8 C 778 669 779 669.8 779 670.6 C 779 671.4 779 672.3 779 672.7 C 779 673.1 774.3 673.2 768.5 673.1 C 754.6 672.8 754.7 674.8 768.8 678.5 C 772.1 679.3 776.8 681.1 779.3 682.5 C 783.6 684.9 783.8 685.3 782.9 687.9 C 782.1 690 779.8 691.6 772 695.5 C 766.5 698.2 762 700.8 762 701.3 C 762 701.7 762.8 701.9 763.8 701.6 C 764.7 701.3 768.3 700.6 771.6 700 C 777 699.1 778.4 699.2 783.4 701.1 C 789.6 703.5 790.4 705.2 786.3 706.8 C 784.7 707.3 779.9 709.2 775.5 710.8 C 771.1 712.5 766.6 714.1 765.6 714.4 C 762 715.6 765.2 716.4 773.5 716.5 C 783.6 716.5 785.7 717.8 780.7 720.8 C 778.6 722 777.3 723.5 777.3 724.6 C 777.6 728.1 765.6 729.1 755.5 726.5 C 741.6 722.8 733.4 717 728.4 707.3 C 725.9 702.2 725.5 700.5 725.7 693.7 C 725.8 687.5 726.4 684.8 728.7 679.7 C 732.6 671.6 746.3 650.5 748.7 649.1 C 751.3 647.6 755.7 648.1 755.6 649.9 Z M 817.6 697.7 C 816.7 703.5 815 710.6 813.9 713.4 C 808.8 725.9 808.7 726 806.5 726 C 803.5 726 802.8 725 804.5 723.3 C 805.3 722.5 806 720.9 806 719.8 C 806 718.7 806.9 716.3 808 714.5 C 809.9 711.4 816.9 686.3 817.1 681.7 C 817.2 680.3 817.6 680.9 818.2 683.3 C 819 686.2 818.8 689.8 817.6 697.7 Z M 794 711 C 794 711.5 793.5 712 792.9 712 C 792.4 712 792.2 711.5 792.5 711 C 792.8 710.4 793.3 710 793.6 710 C 793.8 710 794 710.4 794 711 Z M 743.9 733.1 C 749.2 738.1 754.3 743.6 755.2 745.4 C 757.2 749 760.7 759.2 762.4 766.4 C 763.6 771.7 766 773.9 766 769.7 C 766 768.3 764.9 762.3 763.5 756.4 C 762.1 750.5 761 744.7 761.2 743.6 C 761.9 738.7 767.9 751.6 768 758.2 C 768 760.2 768.9 764 770 766.6 C 772.5 772.3 772 775.5 768 779.9 C 764.8 783.3 764 787 766.4 787 C 770.6 787 797.2 772.9 807 765.5 C 813.2 760.8 815 759.7 815 760.3 C 815 760.6 808.7 767.9 800.9 776.7 C 793.1 785.4 782.1 798.8 776.3 806.5 C 764.7 822 746.9 843 745.8 842.4 C 744.5 841.6 728 808.1 723.7 797.4 C 721.2 791.4 718.5 783.1 717.5 779 C 716.6 774.9 715.5 769.8 715 767.8 C 714.6 765.8 714.5 763.8 714.8 763.5 C 715.7 762.6 723.8 763 726.2 764.1 C 727.5 764.6 730.9 768.7 733.9 773 C 736.9 777.4 739.5 780.8 739.7 780.6 C 740 780.4 739 776.6 737.6 772.1 C 736.2 767.7 734.6 761.2 734 757.8 C 732.9 751.1 732.6 724 733.6 724 C 733.9 724 738.5 728.1 743.9 733.1 Z M 805 734.2 C 802.5 739 799 741.6 799 738.7 C 799 737.2 804.9 730.6 805.6 731.3 C 805.9 731.6 805.6 732.9 805 734.2 Z M 778 766.5 C 777.3 767.4 776.5 767.8 776.3 767.6 C 775.6 766.9 777 765 778.2 765 C 778.8 765 778.8 765.6 778 766.5 Z M 703 766.5 C 703 769 706.5 791.6 708.1 799 C 710.6 811 719.6 839.5 726.3 856.5 C 732.5 872.4 748.7 904.6 760 923.5 C 769.4 939.3 789.2 969.1 799.8 983.1 C 815.7 1004.3 822.3 1011.4 847.9 1034.3 L 850.3 1036.5 L 844.9 1037.3 C 838.1 1038.4 742.5 1038.7 734.8 1037.6 C 730 1037 729.1 1036.5 728.6 1034.5 C 728.3 1033.2 723.9 1027 718.9 1020.8 C 696 992.2 667 941.5 653 905.6 C 650.2 898.4 646.8 889.8 645.5 886.5 C 644.2 883.2 642.1 877.6 640.9 874 C 638.8 867.9 636.1 862.9 637.3 867.5 C 637.6 868.6 638.8 874.7 640 881 C 645.6 911.4 655.3 944.4 665.4 967.3 C 672.9 984.4 677.4 992.3 684.5 1001 C 690.2 1008 711.3 1028.8 717 1033.1 C 718.9 1034.6 720.3 1036 720 1036.3 C 719.7 1036.6 717.5 1036.4 715 1035.9 C 712.5 1035.4 703.8 1034.1 695.5 1033 C 676.6 1030.5 672.8 1029.7 655 1024.9 C 634.1 1019.2 630.7 1017.3 624.4 1007.7 C 618 998 615.7 995.5 609.8 992.2 C 607.1 990.7 605 989 605 988.3 C 605 987.6 607.3 981.5 610 974.7 C 613.7 965.6 615 961 615 957.4 C 615 952.1 613.2 937.8 607.5 898 C 605.5 884 602.8 863.3 601.5 852 C 596.7 810.4 595 796.4 594.4 794.3 C 593.9 792.6 594.4 791.8 596.7 790.7 C 608.4 784.6 703 763.1 703 766.5 Z M 1167.6 815.5 C 1168.3 817.2 1162.2 830.6 1158.9 834.8 C 1153.4 841.9 1133.1 863.5 1129.6 866.1 C 1125.5 869.1 1120 870 1120 867.7 C 1120.1 867.1 1123 863.1 1126.6 859 C 1130.2 854.9 1139.7 843.6 1147.7 834 C 1165.2 813 1166.3 812 1167.6 815.5 Z M 1128.4 820.3 C 1130.1 821.6 1130 822 1127.1 829 C 1121.2 842.8 1109.4 860 1102.6 864.6 C 1098.9 867.2 1092 868.7 1092 866.9 C 1092 866.3 1093.7 863.7 1095.8 861.1 C 1100.8 855.1 1111.3 839.8 1118.4 828.2 C 1121.6 823.2 1124.7 819 1125.4 819 C 1126.1 819 1127.4 819.6 1128.4 820.3 Z M 1092.3 840.4 C 1093.2 841.1 1094 842.3 1094 842.9 C 1094 844.8 1091.1 850 1086.9 855.5 C 1084.9 858.2 1080.4 865.4 1076.9 871.5 C 1073.5 877.5 1068 886.2 1064.8 890.7 C 1056 903 1040.9 916.3 1037.8 914.4 C 1037 913.9 1037.3 911.7 1040.2 897.5 C 1042.5 885.8 1046.5 875.3 1049.1 874 C 1050.1 873.4 1053.6 873 1056.9 873 C 1062.4 873 1063.3 872.7 1066.4 869.7 C 1068.3 868 1072 862.9 1074.6 858.5 C 1082.1 846 1087.4 839 1089.4 839 C 1090 839 1091.3 839.7 1092.3 840.4 Z M 1129.9 909.2 C 1127.7 913.5 1119.7 923.8 1112.3 931.6 C 1103.3 941.3 1088 950 1069.9 955.8 C 1057.3 959.8 1053 960.6 1053 958.9 C 1053 958 1058.1 955.8 1066.8 952.9 C 1082.3 947.6 1092.3 942.3 1102.5 934 C 1109.7 928.1 1121.9 915.7 1127.9 908.3 C 1129.8 905.9 1131.5 904.2 1131.7 904.4 C 1132 904.6 1131.1 906.8 1129.9 909.2 Z M 642.7 1038.4 C 653.7 1041.9 665.3 1044.7 674 1046 C 685.2 1047.6 685 1047.5 685 1052.4 C 685 1054.7 684.7 1056.9 684.4 1057.2 C 684.1 1057.6 682.4 1057.4 680.7 1056.9 C 678.9 1056.3 672.8 1055.1 667 1054 C 661.2 1053 655.2 1051.7 653.6 1051.1 C 651.2 1050.1 650.5 1050.2 649.5 1051.6 C 648.5 1053.1 647.3 1053.2 640.9 1052.4 L 633.5 1051.5 L 633.2 1043.7 C 633 1039.1 633.3 1036 633.9 1036 C 634.5 1036 638.4 1037.1 642.7 1038.4 Z M 887 1043.8 C 887.9 1045.7 888.4 1054.4 888.8 1073.7 C 889.2 1100.4 889.2 1101 887.3 1101 C 885.3 1101 885.2 1100.1 884.7 1074.7 C 884.4 1060.3 883.7 1047 883.1 1045.1 C 882.5 1043.2 882.3 1041.3 882.6 1040.9 C 883.4 1039.5 885.7 1041 887 1043.8 Z M 876.6 1048.2 C 877 1048.8 877.5 1056.3 877.8 1064.8 C 878.2 1077.2 878 1080.4 876.9 1081.1 C 876.1 1081.6 866.7 1082 856 1082 L 836.4 1082 L 834.7 1068.2 C 833.8 1060.7 832.8 1053.1 832.4 1051.3 L 831.8 1048.1 L 839.1 1047.7 C 858.5 1046.8 875.9 1047 876.6 1048.2 Z M 700.3 1051.5 C 700.1 1052.6 699.9 1055.2 699.8 1057.2 C 699.7 1059.3 699.5 1061 699.4 1061 C 699.2 1061 698 1060.6 696.6 1060 C 694.3 1059.2 694 1058.5 694 1054 L 694 1048.9 L 697.3 1049.2 C 699.8 1049.4 700.4 1049.9 700.3 1051.5 Z M 766.5 1054.8 C 776.1 1055.4 777.5 1055.7 777.4 1057.2 C 777.4 1058.2 777.3 1067.4 777.2 1077.6 L 777 1096.2 L 752 1095.8 C 724.5 1095.5 724.3 1095.4 726.3 1089.6 C 727.6 1086 727.9 1061 726.7 1056.5 L 725.9 1053.5 L 740.7 1053.8 C 748.9 1054 760.5 1054.5 766.5 1054.8 Z M 811.8 1068.4 C 812 1069.4 811.7 1070.7 811.1 1071.3 C 809.6 1072.8 806.5 1069.7 807.4 1067.5 C 808.2 1065.4 811.4 1066 811.8 1068.4 Z M 648.3 1068.6 C 649.8 1068.9 651 1069.8 651 1070.5 C 651 1071.5 650.1 1071.6 647.3 1070.9 C 645.2 1070.4 642.1 1070 640.4 1070 C 638.8 1070 636.5 1069.3 635.4 1068.4 C 633.6 1067 634 1066.9 639.5 1067.5 C 642.8 1067.8 646.7 1068.3 648.3 1068.6 Z M 656.3 1071.7 C 655.6 1071.9 654.4 1071.9 653.8 1071.7 C 653.1 1071.4 653.6 1071.2 655 1071.2 C 656.4 1071.2 656.9 1071.4 656.3 1071.7 Z M 662.8 1072.7 C 661.8 1072.9 660.2 1072.9 659.3 1072.7 C 658.3 1072.4 659.1 1072.2 661 1072.2 C 662.9 1072.2 663.7 1072.4 662.8 1072.7 Z M 668.3 1073.7 C 667.6 1073.9 666.4 1073.9 665.8 1073.7 C 665.1 1073.4 665.6 1073.2 667 1073.2 C 668.4 1073.2 668.9 1073.4 668.3 1073.7 Z M 673.7 1074.6 C 673.4 1074.9 672.5 1075 671.8 1074.7 C 671 1074.4 671.3 1074.1 672.4 1074.1 C 673.5 1074 674.1 1074.3 673.7 1074.6 Z M 686.3 1076.7 C 685.6 1076.9 684.4 1076.9 683.8 1076.7 C 683.1 1076.4 683.6 1076.2 685 1076.2 C 686.4 1076.2 686.9 1076.4 686.3 1076.7 Z M 699.9 1078.6 C 701 1079.6 699.1 1079.6 694 1078.4 L 688.5 1077.1 L 694 1077.6 C 697 1077.9 699.7 1078.3 699.9 1078.6 Z M 720.3 1078.4 C 721.3 1080.8 719.9 1084 717.9 1084 C 715.7 1084 715.3 1080.1 717.2 1078.2 C 718.8 1076.6 719.7 1076.7 720.3 1078.4 Z M 668 1085.5 C 685.3 1087.9 701.9 1090.4 704.9 1091 C 707.8 1091.5 712.5 1092 715.3 1092 L 720.3 1092 L 719.7 1095.7 C 718.6 1102.5 717.3 1103 702.2 1101.9 C 689.3 1101.1 655.8 1097.1 643.4 1094.9 L 637.2 1093.8 L 636.6 1089.7 C 636.2 1087.4 635.7 1084.5 635.3 1083.2 C 635 1082 635.2 1081 635.6 1081 C 636.1 1081 650.7 1083 668 1085.5 Z M 878.7 1093.1 C 878.4 1096.6 877.6 1099.6 876.8 1100.1 C 876.1 1100.6 866 1101 854.3 1101 L 833.1 1101 L 833.7 1097.2 C 835 1089 833.7 1089.6 854.1 1088.4 C 864.2 1087.8 874 1087.3 875.9 1087.2 L 879.3 1087 L 878.7 1093.1 Z" fill="#000000" stroke="none"/>
    <path d="M 739.9 601.7 C 738.6 603.3 738.7 603.4 740.3 602.1 C 741.2 601.4 742 600.6 742 600.4 C 742 599.6 741.2 600.1 739.9 601.7 Z" fill="#000000" stroke="none"/>
    <path d="M 684.7 803.6 C 682.1 807.8 683.3 828.9 687.2 848.5 C 692.4 875 707.7 917.2 723.4 948.4 C 731.1 963.7 753.1 1002.2 753.8 1001.5 C 754 1001.3 750.1 992 745 980.8 C 735.3 959.6 720.3 923.8 715.5 911 C 701.5 872.9 690.7 835.7 688 816 C 686.7 806.6 685.6 802.3 684.7 803.6 Z" fill="#000000" stroke="none"/>
    <path d="M 639.7 994.5 C 642.6 999.8 657 1010.5 667.1 1014.9 C 678.5 1019.9 678.8 1018.1 667.5 1012.1 C 656.7 1006.3 647.9 1000.6 642.3 995.7 C 639.8 993.5 639 993.1 639.7 994.5 Z" fill="#000000" stroke="none"/>
  </g>
  <g transform="matrix(1.006893, 0, 0, 0.98809, -185.125916, -52.307793)" style="transform-origin: 815.126px 982.308px;">
    <title>logo</title>
    <path d="M 621.5 1406 L 435.5 1406.5 L 430 1408.6 C 415.6 1414.1 404.7 1421.8 395.3 1433 C 383.5 1447.1 377.6 1463.5 377.6 1482.5 C 377.6 1495.4 379.9 1504.8 386.1 1517.6 C 392.2 1530.5 399.5 1539.6 415.1 1554 C 429.3 1567.1 434.2 1572.6 433.8 1574.9 C 433 1579.1 433 1579.1 332.3 1578.8 C 279.4 1578.6 235.9 1578.8 235.6 1579.1 C 235.3 1579.4 234.7 1599 234.3 1622.7 L 233.7 1665.7 L 259.5 1666.3 C 297.6 1667.3 469.5 1667.1 476.7 1666.1 C 490.7 1664 510 1653.3 520.5 1641.7 C 544.1 1615.7 548.8 1575.6 532 1544.2 C 526.6 1534 518.9 1524.8 501.8 1508 C 492.6 1498.9 485 1490.9 485 1490.2 C 485 1489.3 499.9 1489 550.3 1489 L 615.7 1489 L 615.2 1577.3 L 614.7 1665.7 L 618 1666.3 C 619.8 1666.7 640.3 1667 663.6 1667 L 706 1667 L 706 1578.7 L 706 1490.3 L 736.8 1489.7 C 753.7 1489.3 777.4 1489 789.6 1489 L 811.7 1489 L 812.3 1448.4 C 812.6 1426 812.6 1407.2 812.4 1406.6 C 812.2 1406 811 1405.5 809.7 1405.5 C 808.5 1405.5 723.8 1405.7 621.5 1406 Z" fill="#000000" stroke="none"/>
    <path d="M 852.1 1406.4 C 851.5 1407.1 847.6 1419.5 843.5 1434.1 C 839.3 1448.6 832.6 1470.8 828.5 1483.5 C 824.5 1496.1 817.5 1518.4 813 1533 C 808.5 1547.6 800.4 1573.7 795 1591 C 789.5 1608.3 782.2 1632.2 778.6 1644 L 772.2 1665.5 L 799.9 1666.1 C 815.1 1666.5 836.4 1666.8 847.3 1666.9 C 866.3 1667 867 1666.9 867 1665 C 867 1663.9 869.1 1656.4 871.6 1648.3 C 874.2 1640.1 876.7 1632 877.2 1630.2 L 878.1 1627 L 922.3 1627 L 966.6 1627 L 971.8 1644.2 C 974.7 1653.7 977 1662.3 977 1663.2 C 977 1664.2 977.9 1665.4 978.9 1666 C 981 1667.1 1073.3 1667 1074.4 1665.9 C 1074.8 1665.6 1071.5 1654.3 1067.1 1640.9 C 1062.7 1627.5 1055.5 1605 1051 1591 C 1043.1 1566.2 1020.2 1497.7 999.5 1436.5 L 989.3 1406.5 L 980.9 1405.8 C 976.3 1405.5 945.6 1405.2 912.8 1405.2 C 866.1 1405.1 852.9 1405.4 852.1 1406.4 Z M 925.3 1499 C 927.2 1504.8 931.6 1518.3 935 1529 C 938.3 1539.7 942 1550.9 943 1553.8 C 946.3 1562.6 947.8 1562 922.6 1562 C 910.2 1562 899.9 1561.6 899.6 1561.1 C 899.3 1560.7 900.4 1556.3 902 1551.4 C 909.7 1527.8 917 1504.7 919.1 1496.8 C 920.4 1492.1 921.5 1488.2 921.6 1488.3 C 921.7 1488.4 923.3 1493.2 925.3 1499 Z" fill="#000000" stroke="none"/>
    <path d="M 1091.2 1535.9 L 1091.5 1666.5 L 1138.7 1666.8 L 1186 1667 L 1186.2 1623.3 L 1186.5 1579.7 L 1190.2 1585.2 C 1196.7 1595 1209 1609.1 1226 1626.1 C 1244.5 1644.7 1255.7 1653.5 1267.6 1659.1 C 1283.5 1666.6 1279.4 1666.3 1366.3 1666.4 L 1444 1666.5 L 1444 1644 C 1444 1631.6 1443.7 1611.8 1443.3 1599.9 L 1442.7 1578.4 L 1378.1 1578.4 C 1317.7 1578.5 1313.2 1578.4 1308.7 1576.7 C 1304 1574.8 1301.3 1571.9 1302.5 1570 C 1302.9 1569.4 1306.6 1567.2 1310.8 1565.1 C 1325.3 1557.8 1334.9 1548.7 1342.6 1535.3 C 1363.6 1498.5 1354.4 1448.4 1322.2 1424 C 1313.6 1417.5 1302 1411.8 1290 1408.3 L 1280.5 1405.5 L 1185.7 1405.4 L 1091 1405.2 L 1091.2 1535.9 Z M 1254.8 1481.5 C 1267.3 1486.8 1270.5 1501.7 1261.1 1511.1 C 1255.7 1516.6 1251.6 1517.1 1216.5 1516.8 L 1186.5 1516.5 L 1186.2 1498.2 L 1186 1480 L 1218.5 1480 C 1245.6 1480 1251.7 1480.3 1254.8 1481.5 Z" fill="#000000" stroke="none"/>
    <path d="M 383.4 1698.7 L 379.3 1699.1 L 379.2 1785.2 C 379.2 1882.9 380 1873.6 370.5 1879.5 L 365.7 1882.5 L 350.1 1882.5 C 338.5 1882.4 333.7 1882.1 331.5 1881 C 327.1 1878.8 325 1872.1 324.8 1859.9 L 324.6 1850 L 279.4 1850 L 234.2 1850 L 234.4 1879.7 C 234.6 1907.8 234.7 1909.9 236.9 1916.4 C 244.2 1938.5 262.2 1955.6 284.5 1961.6 C 291 1963.4 295.7 1963.5 350.5 1963.5 C 404.6 1963.5 410 1963.3 415.9 1961.7 C 442.4 1954.2 462.5 1931.5 470.1 1900.4 C 472.3 1891.6 472.3 1890.3 472.7 1795.4 L 473.1 1699.3 L 450.4 1698.7 C 427.5 1698 391 1698 383.4 1698.7 Z" fill="#000000" stroke="none"/>
    <path d="M 1210.3 1698.7 L 1194 1699 L 1194 1740.1 L 1194 1781.1 L 1215.3 1780.5 C 1226.9 1780.2 1244.6 1779.8 1254.5 1779.7 L 1272.5 1779.5 L 1272.8 1871.5 L 1273 1963.5 L 1317.5 1963.8 C 1342 1964 1363 1963.8 1364 1963.5 C 1366 1962.9 1366 1961.2 1366.2 1869.2 L 1366.5 1775.5 L 1421.3 1775.2 L 1476 1775 L 1475.8 1736.7 L 1475.5 1698.5 L 1351 1698.5 C 1282.5 1698.5 1219.2 1698.6 1210.3 1698.7 Z" fill="#000000" stroke="none"/>
    <path d="M 503.9 1699.4 C 503.2 1700.1 503.5 1961.8 504.2 1962.5 C 505 1963.3 676.8 1963.9 721.8 1963.3 L 753.1 1962.8 L 752.9 1930.7 C 752.7 1913 752.4 1895.5 752.2 1891.7 L 751.8 1885 L 673.9 1885 L 595.9 1885 L 596.2 1874.2 L 596.5 1863.5 L 657.5 1863 C 691.1 1862.7 718.6 1862.3 718.8 1862.2 C 719 1862.1 719 1848.3 718.9 1831.5 L 718.8 1801 L 657.5 1801 C 623.7 1801 595.9 1800.7 595.7 1800.2 C 595.5 1799.8 595.5 1794.7 595.8 1788.8 L 596.2 1778 L 673.9 1777.8 L 751.5 1777.5 L 751.8 1738.2 L 752 1699 L 628.2 1699 C 560.1 1699 504.1 1699.2 503.9 1699.4 Z" fill="#000000" stroke="none"/>
    <path d="M 781 1831 L 781 1963 L 831.8 1963.2 C 902.6 1963.6 948.3 1963.1 956.1 1962 C 965 1960.7 979.2 1956.5 986.6 1952.9 C 1004.5 1944.4 1024 1927.6 1034.4 1911.6 C 1049 1889.4 1055.5 1867.3 1056.7 1836.4 C 1057.7 1810.3 1053.5 1788.8 1043.6 1768.5 C 1033.5 1748 1020.2 1732.2 1003.1 1720.7 C 989.4 1711.5 976.3 1706.2 956 1701.7 C 946.9 1699.7 943.3 1699.6 863.8 1699.3 L 781 1698.9 L 781 1831 Z M 918.3 1778.3 L 932.6 1778.5 L 940.3 1782.3 C 955.8 1790 963.6 1801.5 966.5 1820.9 C 968.4 1833.1 967.4 1845.2 963.9 1854.6 C 960.9 1862.4 951.2 1872.6 941.7 1877.6 L 934.5 1881.5 L 905.4 1881.8 L 876.3 1882.2 L 875.7 1875.3 C 875.3 1871.6 875 1848 875 1823 L 875 1777.5 L 889.5 1777.7 C 897.5 1777.9 910.4 1778.1 918.3 1778.3 Z" fill="#000000" stroke="none"/>
    <path d="M 1081.9 1702.2 C 1081.7 1704 1081.7 1763.7 1081.8 1834.7 L 1082.2 1964 L 1120.4 1964 C 1141.5 1964 1162.2 1963.7 1166.5 1963.3 L 1174.3 1962.7 L 1173.9 1830.8 L 1173.5 1699 L 1127.9 1699 L 1082.2 1699 L 1081.9 1702.2 Z" fill="#000000" stroke="none"/>
  </g>
</svg>